<?xml version="1.0" encoding="utf-8"?>
<!-- Generator: Adobe Illustrator 23.1.0, SVG Export Plug-In . SVG Version: 6.00 Build 0)  -->
<svg version="1.1" id="Layer_1" xmlns="http://www.w3.org/2000/svg" xmlns:xlink="http://www.w3.org/1999/xlink" x="0px" y="0px"
	 viewBox="0 0 121 43" style="enable-background:new 0 0 121 43;" xml:space="preserve">
<style type="text/css">
	.st0{fill:#FFFFFF;}
</style>
<g>
	<path class="st0" d="M29.05,27.38v-0.07c0-3.98,3.02-6.03,7.52-6.03c1.77,0,3.51,0.35,4.61,0.75V21.7c0-1.99-1.24-3.12-3.83-3.12
		c-1.73,0-3.12,0.29-4.55,0.79c-0.4,0.14-0.84-0.09-0.96-0.5l-0.97-3.32c-0.11-0.37,0.09-0.77,0.45-0.91
		c1.99-0.75,4.15-1.24,7.13-1.24c3.44,0,5.79,0.82,7.31,2.34c1.46,1.42,2.06,3.41,2.06,6.1v10.29c0,0.41-0.34,0.75-0.75,0.75H41.9
		c-0.41,0-0.75-0.34-0.75-0.75v-1.24c-1.31,1.46-3.12,2.41-5.64,2.41C31.85,33.3,29.05,31.21,29.05,27.38z M41.25,25.92v-0.89
		c-0.67-0.28-1.63-0.5-2.63-0.5c-1.95,0-3.09,0.96-3.09,2.38v0.07c0,1.31,0.99,2.09,2.38,2.09C39.87,29.08,41.25,27.84,41.25,25.92z
		"/>
	<path class="st0" d="M50.41,36.39l1.5-3.38c0.17-0.39,0.64-0.56,1.03-0.37c0.85,0.42,1.69,0.66,2.28,0.66
		c0.68,0,1.15-0.18,1.58-0.79l-7.2-18.03c-0.2-0.5,0.17-1.04,0.7-1.04h5.48c0.33,0,0.62,0.21,0.72,0.52l3.71,11.19l3.5-11.18
		c0.1-0.32,0.39-0.53,0.72-0.53h5.35c0.53,0,0.9,0.53,0.71,1.03l-6.73,17.94c-1.69,4.53-3.52,6.32-7.4,6.32
		c-2.12,0-3.96-0.53-5.6-1.35C50.41,37.2,50.25,36.76,50.41,36.39z"/>
	<path class="st0" d="M71.45,23.41v-0.07c0-5.58,3.99-10,9.64-10c6.61,0,9.64,4.84,9.64,10.46c0,0.2,0,0.42,0,0.65
		c-0.01,0.41-0.34,0.73-0.75,0.73H77.92c0.53,2.08,2.05,3.14,4.13,3.14c1.41,0,2.57-0.47,3.78-1.52c0.27-0.24,0.68-0.24,0.96-0.01
		l2.63,2.18c0.33,0.27,0.36,0.76,0.08,1.08c-1.81,2-4.32,3.29-7.8,3.29C75.69,33.34,71.45,29.35,71.45,23.41z M84.45,21.75
		c-0.25-2.12-1.48-3.46-3.32-3.46c-1.77,0-2.97,1.38-3.32,3.46H84.45z"/>
	<path class="st0" d="M18.61,13.36c-2.86,0-4.48,1.38-5.78,2.96v-2.16c0-0.41-0.33-0.75-0.75-0.75H6.86c-0.41,0-0.75,0.33-0.75,0.75
		v26.16c0,0.54,0.55,0.9,1.05,0.68l5.21-2.3c0.27-0.12,0.44-0.39,0.44-0.68v-4.37c-1.15-0.49-2.21-1.2-3.11-2.1
		c-1.79-1.79-2.61-4.43-1.69-6.87c0.09-0.23,0.19-0.46,0.3-0.68c1.38-2.63,4.47-3.89,7.31-3.06c0.17,0.05,0.34-0.08,0.33-0.25
		l0-1.25c0-0.68,0.78-1.07,1.32-0.65l4.85,3.72c0.42,0.32,0.43,0.96,0.02,1.29l-4.85,3.92c-0.54,0.44-1.34,0.05-1.34-0.64v-1.74
		c0-0.19-0.11-0.36-0.28-0.44c-0.94-0.42-1.9-0.14-2.11-0.07c-0.03,0.01-0.05,0.02-0.08,0.03c-1.11,0.52-1.9,1.47-1.85,2.74
		c0.05,1.22,0.76,2.33,1.51,3.25c0.15,0.19,0.31,0.37,0.48,0.54c1.16,1.07,2.7,1.9,5.01,1.9c4.51,0,8.43-3.77,8.43-9.98v-0.07
		C27.07,17.14,23.16,13.36,18.61,13.36z"/>
	<path class="st0" d="M101.47,33.3c2.86,0,4.48-1.38,5.78-2.96v1.79c0,0.41,0.33,0.75,0.75,0.75h5.21c0.41,0,0.75-0.33,0.75-0.75
		V2.98c0-0.54-0.55-0.9-1.05-0.68l-5.21,2.3c-0.27,0.12-0.44,0.39-0.44,0.68v7.73c1.15,0.49,2.21,1.2,3.11,2.1
		c1.79,1.79,2.61,4.43,1.69,6.87c-0.09,0.23-0.19,0.46-0.3,0.68c-1.38,2.63-4.47,3.89-7.31,3.06c-0.17-0.05-0.34,0.08-0.33,0.25
		l0,1.25c0,0.68-0.78,1.07-1.32,0.65l-4.85-3.72c-0.42-0.32-0.43-0.96-0.02-1.29l4.85-3.92c0.54-0.44,1.34-0.05,1.34,0.64v1.74
		c0,0.19,0.11,0.36,0.29,0.44c0.94,0.42,1.9,0.14,2.11,0.07c0.03-0.01,0.05-0.02,0.08-0.03c1.11-0.52,1.9-1.47,1.85-2.74
		c-0.05-1.22-0.76-2.33-1.51-3.25c-0.15-0.19-0.31-0.37-0.48-0.54c-1.16-1.07-2.7-1.9-5.01-1.9c-4.51,0-8.43,3.77-8.43,9.98v0.07
		C93,29.53,96.92,33.3,101.47,33.3z"/>
</g>
</svg>
